<?xml version="1.0" encoding="UTF-8"?>
<svg width="354px" height="63px" viewBox="0 0 354 63" version="1.1" xmlns="http://www.w3.org/2000/svg" xmlns:xlink="http://www.w3.org/1999/xlink">
    <!-- Generator: Sketch 52.6 (67491) - http://www.bohemiancoding.com/sketch -->
    <title>logo</title>
    <desc>Created with Sketch.</desc>
    <g id="Page-1" stroke="none" stroke-width="1" fill="none" fill-rule="evenodd">
        <path d="M45.838,32.112 L9.934,32.112 L9.934,62.472 L0.562,62.472 L0.562,0.96 L9.934,0.96 L9.934,22.74 L45.838,22.74 L45.838,0.96 L55.078,0.96 L55.078,62.472 L45.838,62.472 L45.838,32.112 Z M104.842,32.112 L68.938,32.112 L68.938,62.472 L59.566,62.472 L59.566,0.96 L68.938,0.96 L68.938,22.74 L104.842,22.74 L104.842,0.96 L114.082,0.96 L114.082,62.472 L104.842,62.472 L104.842,32.112 Z M200.45,62.604 L146.066,62.604 L146.066,0.564 L155.306,0.564 L155.306,53.496 L200.45,53.496 L200.45,62.604 Z M204.938,22.872 L214.178,22.872 L214.178,62.34 L204.938,62.34 L204.938,22.872 Z M204.806,14.16 L204.806,1.752 L213.782,1.752 L213.782,14.16 L204.806,14.16 Z M242.558,50.856 L256.682,22.344 L266.846,22.344 L246.782,63 L238.598,63 L218.666,22.344 L228.83,22.344 L242.558,50.856 Z M277.67,62.34 L268.562,62.34 L268.562,35.148 C268.562,32.112 269.618,29.472 271.334,27.096 C273.71,24.324 277.274,22.344 281.234,22.344 L299.846,22.344 L299.846,31.584 L281.234,31.584 C279.254,31.584 277.67,33.036 277.67,35.148 L277.67,62.34 Z M314.894,62.208 C311.858,61.68 309.35,59.964 307.37,57.852 C305.654,55.74 304.466,52.836 304.466,49.8 L304.466,35.412 C304.466,32.244 305.654,29.472 307.37,27.228 C309.746,24.588 313.178,22.74 317.27,22.74 L340.238,22.74 C344.462,22.74 348.158,24.588 350.402,27.228 C351.986,29.076 353.042,31.452 353.042,34.092 C353.042,40.428 347.234,45.444 340.238,45.444 L313.706,45.444 L313.706,49.8 C313.706,51.648 315.158,53.364 317.27,53.364 L353.438,53.364 L353.438,62.34 L317.27,62.34 C316.346,62.34 315.554,62.208 314.894,62.208 Z M340.238,36.468 C342.35,36.468 343.802,35.28 343.802,34.092 C343.802,33.036 342.35,31.848 340.238,31.848 L317.27,31.848 C315.158,31.848 313.706,33.432 313.706,35.412 L313.706,36.468 L340.238,36.468 Z" id="HH-Livre" fill="#FE7865"></path>
    </g>
</svg>